<?xml version="1.0" standalone="no"?><svg xmlns="http://www.w3.org/2000/svg" viewBox="0 0 1440 320"><path fill="#ed1c24" fill-opacity="1" d="M0,224L0,224L96,224L96,288L192,288L192,192L288,192L288,224L384,224L384,0L480,0L480,96L576,96L576,64L672,64L672,32L768,32L768,96L864,96L864,96L960,96L960,288L1056,288L1056,64L1152,64L1152,288L1248,288L1248,288L1344,288L1344,224L1440,224L1440,320L1344,320L1344,320L1248,320L1248,320L1152,320L1152,320L1056,320L1056,320L960,320L960,320L864,320L864,320L768,320L768,320L672,320L672,320L576,320L576,320L480,320L480,320L384,320L384,320L288,320L288,320L192,320L192,320L96,320L96,320L0,320L0,320Z"></path></svg>